<?xml version="1.0" encoding="utf-8"?>
<!-- Generator: Adobe Illustrator 16.0.0, SVG Export Plug-In . SVG Version: 6.00 Build 0)  -->
<!DOCTYPE svg PUBLIC "-//W3C//DTD SVG 1.1//EN" "http://www.w3.org/Graphics/SVG/1.1/DTD/svg11.dtd">
<svg version="1.1" id="Layer_1" xmlns="http://www.w3.org/2000/svg" xmlns:xlink="http://www.w3.org/1999/xlink" x="0px" y="0px"
	 width="64px" height="64px" viewBox="-24.32 -24.32 64 64" enable-background="new -24.32 -24.32 64 64" xml:space="preserve">
<g>
	<linearGradient id="SVGID_1_" gradientUnits="userSpaceOnUse" x1="-14.9404" y1="-1.6421" x2="27.9865" y2="21.9552">
		<stop  offset="0" style="stop-color:#001D3E"/>
		<stop  offset="0.2" style="stop-color:#001936"/>
		<stop  offset="0.5" style="stop-color:#002D4F"/>
		<stop  offset="0.81" style="stop-color:#030E2D"/>
		<stop  offset="1" style="stop-color:#425769"/>
	</linearGradient>
	<path fill-rule="evenodd" clip-rule="evenodd" fill="url(#SVGID_1_)" d="M-0.054,12.414c0,0,6.063-0.944,15.462-0.058
		c0.105,0.009,0.212,0.013,0.325,0.021c1.123-0.143,3.402-0.329,3.987-1.379h0.098v0.419l-0.089,0.021c0,0-0.065,0.505-1.131,0.895
		c-0.139,0.049-0.302,0.106-0.497,0.163l0.009,2.083h3.646v-3.568h0.089c-0.04-0.004-1.009-0.049-1.009-0.049
		s-1.392,0.017-1.855,0.029c-0.455,0.008-9.009,0.317-11.263,0.28c-2.242-0.036-10.001-0.236-11.368-0.272l-1.302-0.032
		c0,0-0.651-0.049-1.09,0.016c-0.411,0.062-0.749,0.065-0.777,0.065h0.082v3.531h3.292l0.008-2.271l0,0
		c-0.183-0.057-0.35-0.113-0.504-0.171c-0.317-0.122-0.615-0.235-0.883-0.451c-0.102-0.077-0.208-0.175-0.281-0.269l0.057-0.443
		c0,0,0.415,0.346,0.863,0.5c0.456,0.15,1.558,0.663,3.959,0.932l0.289,0.033L-0.054,12.414L-0.054,12.414z M25.328,19.103h0.578
		c0.838,0,1.725,0.708,1.725,1.436v0.794c0,0.871-0.846,1.652-1.725,1.652h-0.578V19.103L25.328,19.103z M-14.592,19.03
		L-14.592,19.03h1.656v4.459h1.221V19.03h1.652v-0.432h-4.529V19.03L-14.592,19.03z M-4.18,23.489L-4.18,23.489h3.67v-0.504h-2.445
		V21.04h2.014v-0.432h-2.014V19.03h2.445v-0.432h-3.67V23.489L-4.18,23.489z M-9.461,23.489L-9.461,23.489h1.221v-2.303h1.945v2.303
		h1.221v-4.891h-1.221v2.156h-1.945v-2.156h-1.221V23.489L-9.461,23.489z M11.518,18.444L11.518,18.444
		c1.529,0,2.767,1.147,2.767,2.563s-1.237,2.567-2.767,2.567c-1.53,0-2.768-1.151-2.768-2.567S9.988,18.444,11.518,18.444
		L11.518,18.444z M11.518,18.867L11.518,18.867c-0.814,0-1.474,0.96-1.474,2.141c0,1.18,0.659,2.14,1.474,2.14
		c0.813,0,1.465-0.96,1.465-2.14C12.983,19.827,12.332,18.867,11.518,18.867L11.518,18.867z M1.936,18.615L1.936,18.615l1.892,4.907
		h0.578l1.001-2.466l0.968,2.466h0.578l1.904-4.907H8.059l-1.212,3.043l-1.245-3.035l-1.253,3.035l-1.212-3.043H1.936L1.936,18.615z
		 M19.834,23.489L19.834,23.489h3.743v-0.504h-2.522v-4.387h-1.221V23.489L19.834,23.489z M16.165,19.103L16.165,19.103h0.578
		c0.357,0,0.65,0.288,0.65,0.643v0.362c0,0.577-0.618,0.72-1.229,0.72V19.103L16.165,19.103z M14.944,23.489L14.944,23.489h1.221
		v-2.229c0.383,0.032,1.595,1.843,1.799,2.229l1.375-0.008l-1.66-2.368c0.407-0.216,1.009-0.472,1.009-1.074v-0.432
		c-0.089-0.699-1.09-1.009-1.871-1.009h-1.872V23.489L14.944,23.489z M24.099,23.489L24.099,23.489h2.018
		c1.44,0,2.873-0.879,2.873-2.229v-0.358c0-1.399-1.286-2.303-2.661-2.303h-2.229V23.489L24.099,23.489z M-22.799,14.578
		L-22.799,14.578h6.567l-0.008-3.019l-0.562-0.154v0.008l-0.065-0.017v-0.008l-0.781-0.195v-0.545c0,0,0.366,0.089,0.781,0.187
		v-0.757c-0.427-0.089-0.781-0.162-0.781-0.162V9.208c0,0,0.35,0.073,0.781,0.146V8.588c-0.415-0.064-0.781-0.122-0.781-0.122V7.742
		c0,0,0.346,0.049,0.781,0.102V7.087c-0.415-0.045-0.781-0.085-0.781-0.085V6.277l0.781,0.065V5.586
		c-0.452-0.008-0.781-0.017-0.781-0.017V4.845l0.781-0.004V4.092c-0.432-0.004-0.781-0.012-0.781-0.012V3.372
		c0,0,0.293-0.02,0.781-0.044V2.583c-0.432,0.037-0.781,0.065-0.781,0.065v-0.74l0.781-0.073V1.102
		c-0.432,0.057-0.781,0.105-0.781,0.105V0.475l0.781-0.13v-0.749c-0.423,0.082-0.781,0.155-0.781,0.155v-0.724l0.781-0.175v-0.757
		c-0.415,0.11-0.781,0.212-0.781,0.212V-2.45l0.781-0.208V-3.39c-0.432,0.134-0.781,0.252-0.781,0.252v-0.752l0.781-0.256v-0.765
		l-0.781,0.293v-0.724l0.781-0.313v-0.745l-0.781,0.334v-0.708l2.03-0.916c0,0,0.171-0.126,0.81-0.208
		c0.867-0.106,1.733-0.008,2.584-0.252c0.557-0.159,1.351-0.35,2.185-0.529c1.644-0.358,3.288-0.753,4.936-1.083
		c8.374-1.672,17.232-1.648,25.605,0.057c2.295,0.464,4.916,1.001,7.153,1.721c0.188,0.061,0.326,0.11,0.635,0.11
		c0.302,0.008,0.928,0.008,0.977,0.016c0.041,0,0.659,0.033,1.059,0.195c0.406,0.159,1.692,0.887,1.692,0.887v0.724l-0.651-0.33
		v0.72c0.35,0.167,0.651,0.313,0.651,0.313v0.72l-0.651-0.285v0.765C31.708-4,32.025-3.878,32.025-3.878v0.724l-0.659-0.244v0.729
		c0.35,0.126,0.659,0.24,0.659,0.24L32-1.681c0,0-0.293-0.114-0.635-0.232v0.769c0.35,0.098,0.659,0.179,0.659,0.179l-0.017,0.732
		l-0.65-0.163v0.732c0.357,0.077,0.675,0.155,0.675,0.155l-0.016,0.732c0,0-0.269-0.057-0.659-0.13v0.745
		c0.366,0.053,0.65,0.102,0.65,0.102l0.009,0.716c0,0-0.326-0.041-0.659-0.073v0.745c0.333,0.02,0.626,0.037,0.626,0.037
		l0.009,0.749c0,0-0.302-0.008-0.635-0.016v0.765c0.455,0,0.684,0,0.684,0v0.732c0,0-0.342,0-0.684,0.004v0.736
		c0.333-0.024,0.586-0.041,0.61-0.041V7.01c0,0-0.261,0.041-0.61,0.085L31.35,7.84c0.374-0.057,0.658-0.098,0.658-0.098v0.704
		L31.35,8.584V9.37c0.39-0.089,0.699-0.175,0.699-0.175v0.736l-0.699,0.167v0.749c0.35-0.11,0.683-0.216,0.683-0.216v0.545
		c0,0-1.163,0.383-1.595,0.496v2.905h6.763v8.765c0,1.457-1.066,2.645-2.368,2.645h-55.264c-1.302,0-2.368-1.188-2.368-2.645V14.578
		L-22.799,14.578z M-2.878,14.578L-2.878,14.578c0.004-0.911,0.004-1.773,0.008-2.104c0.626,0.171,1.391,0.338,2.278,0.492
		l-0.004,1.611H-2.878L-2.878,14.578z M-0.026,14.578L-0.026,14.578c0.004-0.586,0.004-1.139,0.004-1.521
		c2.075,0.317,4.765,0.529,8.032,0.501c2.832-0.029,4.956-0.176,6.543-0.371c0.008,0.347,0.008,0.854,0.008,1.392H-0.026
		L-0.026,14.578z M15.131,14.578L15.131,14.578v-1.465c1.033-0.146,1.814-0.309,2.4-0.455c0,0.423,0,1.159,0.008,1.92H15.131
		L15.131,14.578z M21.844,11.009L21.844,11.009h0.082v0.92l0.089-0.004l0.009-0.928C21.917,11.005,21.853,11.009,21.844,11.009
		L21.844,11.009z M-6.906,11.884L-6.906,11.884v-0.838h0.082c0,0-1.083-0.094-2.303-0.203v0.838
		C-8.135,11.77-7.159,11.864-6.906,11.884L-6.906,11.884z M18.793,7.555L18.793,7.555c-0.009,0-0.024,0-0.041,0
		c-0.651,0.35-1.367,0.7-2.173,1.025c0.105-0.004,1.237-0.049,2.718-0.105l0.008-0.924c-0.195,0.004-0.357,0.004-0.479,0.004l0,0
		h-0.008H18.793L18.793,7.555L18.793,7.555z M20.331,6.664L20.331,6.664c0.562-0.004,1.14-0.028,1.701-0.037l0.008-0.895
		L21.926,5.74l-0.236,0.13l-0.261,0.15c-0.284,0.159-0.577,0.33-0.895,0.517L20.331,6.664L20.331,6.664z M-11.431-7.858
		L-11.431-7.858l-0.017,11.022c0.358,0.13,2.954,1.103,5.058,2.376L-6.125,5.7c2.348,1.424,7.015,4.256,13.989,4.325
		c6.429,0.062,10.132-2.128,12.613-3.597c0.31-0.188,0.61-0.362,0.888-0.517l0.269-0.15c0.977-0.549,2.115-1.196,3.043-1.672
		c0.773-0.391,1.433-0.684,2.026-0.871V-7.679h0.033v-0.004c0,0-0.839-0.419-2.255-0.891c-10.863-2.718-21.76-3.08-32.697-0.305
		C-9.388-8.517-11.028-7.988-11.431-7.858L-11.431-7.858z M26.833-7.435L26.833-7.435v0.806l0.887,0.248
		c0,0,0.105,0.049,0.423,0.065c0.098,0.004,0.229,0.008,0.375,0.012v-0.793h0.04c-0.691-0.024-0.806-0.069-1.025-0.142
		C27.346-7.305,26.996-7.394,26.833-7.435L26.833-7.435z M26.833-5.811L26.833-5.811v0.83c0.211,0.053,0.846,0.215,0.87,0.224
		c0.017,0.004,0.253,0.041,0.554,0.057c0.065,0,0.154,0,0.261,0.008v-0.813c-0.139-0.008-0.229-0.017-0.358-0.017
		c-0.301,0-0.749-0.146-0.887-0.187C27.175-5.734,26.939-5.787,26.833-5.811L26.833-5.811z M26.833-4.167L26.833-4.167v0.851
		l1.001,0.179c0.211,0.037,0.447,0.049,0.675,0.057v-0.834c-0.325-0.008-0.586-0.028-0.838-0.077
		C27.354-4.065,26.996-4.135,26.833-4.167L26.833-4.167z M26.833-2.511L26.833-2.511v0.806l0.911,0.15c0,0,0.407,0.021,0.765,0.028
		V-2.3c-0.26,0-0.528-0.016-0.757-0.057C27.444-2.414,27.142-2.471,26.833-2.511L26.833-2.511z M26.833-0.875L26.833-0.875v0.813
		c0.269,0.033,1.041,0.114,1.058,0.122c0.024,0,0.236,0.024,0.618,0.024v-0.797c-0.105-0.008-0.586-0.024-0.919-0.065
		C27.322-0.807,26.996-0.851,26.833-0.875L26.833-0.875z M26.833,0.748L26.833,0.748v0.818c0.284,0.024,1.123,0.081,1.538,0.098
		c0.049,0,0.089,0.004,0.138,0.004V0.866c-0.325-0.008-0.675-0.032-0.928-0.057C27.305,0.78,26.988,0.76,26.833,0.748L26.833,0.748z
		 M26.833,2.384L26.833,2.384v0.817c0.228,0.008,1.09,0.033,1.676,0.041V2.461c-0.317-0.004-0.635-0.008-0.806-0.024
		C27.427,2.412,27.012,2.396,26.833,2.384L26.833,2.384z M25.083,4.027L25.083,4.027c-0.171,0.085-0.342,0.175-0.529,0.265V4.87
		c0.578,0,1.286,0,1.962,0l0.008-0.846C26.15,4.031,25.393,4.031,25.083,4.027L25.083,4.027z M24.473,4.336L24.473,4.336
		C24.164,4.5,23.831,4.678,23.48,4.87c0.204,0,0.554,0,0.993,0V4.336L24.473,4.336z M13.577,9.544L13.577,9.544
		c-0.139,0.037-0.285,0.069-0.439,0.098l-0.008,0.77c1.074-0.017,2.124-0.032,3.133-0.053l0.008-0.875
		C15.4,9.508,14.504,9.529,13.577,9.544L13.577,9.544z M13.056,9.663L13.056,9.663c-1.01,0.212-2.116,0.366-3.329,0.439v0.354
		c1.123-0.013,2.23-0.028,3.32-0.045L13.056,9.663L13.056,9.663z M9.663,10.111L9.663,10.111c-0.578,0.032-1.172,0.049-1.799,0.04
		c-0.545-0.008-1.066-0.024-1.583-0.064v0.427c1.127-0.021,2.258-0.036,3.381-0.053V10.111L9.663,10.111z M6.216,10.082
		L6.216,10.082c-1.2-0.085-2.323-0.256-3.369-0.476v0.891c1.241,0.029,2.388,0.037,3.369,0.021V10.082L6.216,10.082z M2.778,9.589
		L2.778,9.589C2.696,9.574,2.607,9.553,2.525,9.533C1.488,9.52,0.483,9.5-0.485,9.484v0.907c1.119,0.045,2.222,0.081,3.263,0.102
		V9.589L2.778,9.589z M-0.754,8.548L-0.754,8.548C-1.551,8.247-2.276,7.93-2.943,7.612c-0.09,0-0.334-0.008-0.68-0.017v0.916
		C-2.39,8.552-1.348,8.573-0.754,8.548L-0.754,8.548z M-4.794,6.636L-4.794,6.636C-5.328,6.334-5.792,6.05-6.19,5.81l-0.106-0.061
		L-6.532,5.74v0.887C-5.812,6.636-5.185,6.644-4.794,6.636L-4.794,6.636z M-7.903,4.854L-7.903,4.854
		c-0.419-0.212-0.834-0.411-1.225-0.59v0.574C-8.721,4.837-8.31,4.845-7.903,4.854L-7.903,4.854z M-9.193,4.235L-9.193,4.235
		c-0.167-0.077-0.333-0.15-0.488-0.22c-0.272,0-0.993,0-1.75,0.004v0.826c0.749-0.008,1.493-0.012,2.238-0.008V4.235L-9.193,4.235z
		 M-11.577,3.193L-11.577,3.193l0.004-0.826c-0.195,0.012-0.997,0.061-1.103,0.065c-0.082,0.004-0.586,0.004-0.944,0v0.777
		C-12.932,3.193-12.229,3.185-11.577,3.193L-11.577,3.193z M-11.569,1.533L-11.569,1.533V0.719l-1.212,0.114
		c0,0-0.382,0.016-0.541,0.016h-0.297v0.797c0.179,0,0.358,0,0.537,0c0,0,0.48-0.016,0.635-0.024
		C-12.318,1.61-11.732,1.549-11.569,1.533L-11.569,1.533z M-11.569-0.103L-11.569-0.103v-0.814c-0.175,0.021-0.911,0.11-1.127,0.122
		c-0.248,0.017-0.395,0.008-0.712,0.029c0,0-0.082,0.004-0.211,0.004v0.806h0.089c0,0,0.435,0,0.834-0.037
		C-12.351-0.025-11.732-0.086-11.569-0.103L-11.569-0.103z M-11.569-1.747L-11.569-1.747l0.004-0.813l-1.245,0.171
		c0,0-0.371,0.024-0.68,0.028c-0.032,0.004-0.081,0.004-0.13,0.004v0.79c0.35,0,0.785-0.008,0.956-0.033
		C-12.468-1.625-11.74-1.722-11.569-1.747L-11.569-1.747z M-11.565-3.415L-11.565-3.415v-0.814l-1.164,0.216
		c0,0-0.354,0.037-0.712,0.037c-0.057,0-0.118,0-0.179,0v0.826c0.341-0.013,0.602-0.029,0.789-0.045
		C-12.538-3.219-11.765-3.374-11.565-3.415L-11.565-3.415z M-11.561-5.059L-11.561-5.059v-0.83l-1.127,0.236
		c0,0-0.378,0.073-0.802,0.073c-0.045,0-0.085,0-0.13,0v0.822c0.309-0.008,0.48-0.008,0.602-0.024
		C-12.831-4.81-11.765-5.018-11.561-5.059L-11.561-5.059z M-11.561-6.727L-11.561-6.727v-0.798
		c-0.146,0.041-0.736,0.195-1.147,0.277c-0.26,0.049-0.57,0.057-0.911,0.065v0.806c0.561-0.016,0.643-0.024,1.017-0.102
		C-12.18-6.564-11.667-6.698-11.561-6.727L-11.561-6.727z M-16.802-6.426L-16.802-6.426v0.741l0.952-0.375l0.008-0.008v-0.773
		L-16.802-6.426L-16.802-6.426z M-15.776-6.865L-15.776-6.865v0.773c0.204-0.073,0.785-0.252,1.636-0.277
		c0.179,0,0.33-0.008,0.456-0.008v-0.806c-0.073,0-0.154,0.004-0.228,0.008c-0.191,0-0.391,0.008-0.59,0.024
		c-0.688,0.053-1.221,0.26-1.221,0.26L-15.776-6.865L-15.776-6.865z M28.599-7.097L28.599-7.097v0.793
		c0.31,0.004,0.643,0.004,0.749,0.017c0.171,0.016,0.716-0.008,1.18,0.22l0.049,0.024v-0.753c-0.154-0.085-0.594-0.272-1.489-0.289
		C28.9-7.085,28.738-7.093,28.599-7.097L28.599-7.097z M30.667-6.743L30.667-6.743v0.741c0.179,0.085,0.398,0.195,0.618,0.301
		v-0.725L30.667-6.743L30.667-6.743z M28.599-5.506L28.599-5.506v0.813c0.301,0.008,0.659,0.017,0.74,0.017
		c0.114,0,0.79,0.057,1.237,0.203v-0.781c-0.13-0.061-0.521-0.211-1.188-0.228C28.99-5.49,28.762-5.498,28.599-5.506L28.599-5.506z
		 M28.599-3.911L28.599-3.911v0.83c0.236,0,0.464,0,0.684,0c0.081,0,0.806,0.033,1.245,0.146c0.017,0,0.032,0.008,0.049,0.008
		v-0.761c-0.146-0.053-0.603-0.195-1.221-0.208C29.071-3.903,28.819-3.907,28.599-3.911L28.599-3.911z M28.599-2.3L28.599-2.3
		l-0.008,0.773c0.032,0,0.064,0,0.089,0c0.391,0.008,1.449,0.024,1.831,0.146c0.017,0.008,0.041,0.012,0.065,0.017v-0.79
		c-0.065-0.016-0.13-0.033-0.179-0.037c-0.424-0.061-0.7-0.126-1.188-0.118C29.031-2.304,28.811-2.3,28.599-2.3L28.599-2.3z
		 M28.591-0.713L28.591-0.713v0.797c0.064,0,0.13,0,0.195,0c0.528-0.008,1.302,0.024,1.79,0.098v-0.777
		c-0.212-0.045-0.545-0.094-1.025-0.118H28.591L28.591-0.713z M28.591,0.87L28.591,0.87v0.801c0.496,0,1.147-0.032,1.717,0.029
		c0.081,0.008,0.171,0.02,0.261,0.028l0.008-0.757l-0.065-0.008c-0.781-0.093-1.196-0.077-1.578-0.081
		C28.835,0.878,28.721,0.874,28.591,0.87L28.591,0.87z M28.591,2.461L28.591,2.461v0.781c0.032,0,0.073,0,0.105,0
		c0.643,0,1.514,0.02,1.872,0.041V2.501c-0.302-0.02-0.879-0.049-1.196-0.041C29.185,2.465,28.892,2.465,28.591,2.461L28.591,2.461z
		 M28.591,4.068L28.591,4.068v0.777c0.187,0,1.147,0.016,1.978,0.021V4.072c-0.017-0.004-0.024-0.004-0.041-0.008
		C30.251,4.04,28.99,4.072,28.591,4.068L28.591,4.068z M28.591,5.639L28.591,5.639l-0.009,0.818
		c0.391-0.008,0.595-0.008,0.847-0.008c0.188,0,0.651-0.024,1.14-0.057V5.626C30.194,5.635,29.063,5.61,28.591,5.639L28.591,5.639z
		 M28.583,7.222L28.583,7.222v0.801c0.106,0,0.195,0.004,0.334,0.004c0.383,0,1.082-0.008,1.644-0.065l0.009-0.781
		c-0.033,0-0.058,0.004-0.09,0.004c-0.651,0.044-1.074,0.008-1.408,0.012C28.965,7.205,28.787,7.209,28.583,7.222L28.583,7.222z
		 M28.583,8.833L28.583,8.833v0.766c0.09,0,0.18,0,0.269,0C29.51,9.602,30.04,9.589,30.56,9.52V8.748
		c-0.154,0.016-0.789,0.069-1.399,0.077C28.965,8.825,28.77,8.829,28.583,8.833L28.583,8.833z M28.583,10.419L28.583,10.419v0.781
		c0.082-0.004,0.155-0.004,0.236,0c0.708,0.009,1.44-0.073,1.741-0.13v-0.785c-0.211,0.045-0.553,0.102-0.919,0.109
		C29.388,10.395,28.99,10.404,28.583,10.419L28.583,10.419z M28.542,11.201L28.542,11.201h-0.049l0.008-0.777
		c-0.569,0.021-1.131,0.054-1.335,0.106c-0.057,0.016-0.269,0.045-0.577,0.073v0.761H26.5l0.008-0.749
		c-0.513,0.049-1.236,0.114-1.969,0.18v0.878c1.375-0.154,2.515-0.316,2.596-0.329C27.256,11.332,27.891,11.217,28.542,11.201
		L28.542,11.201z M28.501,9.602L28.501,9.602V8.836c-0.456,0.013-0.871,0.037-1.204,0.065c-0.082,0.004-0.326,0.028-0.708,0.057
		v0.822c0.293-0.028,0.504-0.057,0.724-0.077C27.313,9.704,27.859,9.623,28.501,9.602L28.501,9.602z M28.501,8.023L28.501,8.023
		V7.226c-0.398,0.021-0.854,0.045-1.025,0.045c-0.049,0-0.383,0.012-0.879,0.032v0.842c0.22-0.012,0.391-0.024,0.513-0.037
		C27.957,8.043,28.282,8.027,28.501,8.023L28.501,8.023z M28.501,6.46L28.501,6.46V5.643c-0.496,0.033-1.074,0.024-1.294,0.024
		c-0.049,0-0.269,0.004-0.61,0.008v0.846c0.203-0.004,0.383-0.008,0.529-0.016C27.761,6.481,28.192,6.469,28.501,6.46L28.501,6.46z
		 M28.501,4.845L28.501,4.845V4.064c-0.391-0.008-1.514-0.049-1.839-0.041h-0.058v0.842C27.346,4.861,28.054,4.854,28.501,4.845
		L28.501,4.845z M-16.802-4.937L-16.802-4.937v0.769l0.578-0.187c0,0,0.143-0.061,0.383-0.134v-0.806
		c-0.029,0.008-0.057,0.021-0.085,0.028L-16.802-4.937L-16.802-4.937z M-16.802-3.415L-16.802-3.415v0.74l0.936-0.248
		c0,0,0.008-0.004,0.024-0.004v-0.79C-16.126-3.626-16.48-3.516-16.802-3.415L-16.802-3.415z M-16.802-1.921L-16.802-1.921v0.761
		l0.793-0.179c0,0,0.061-0.017,0.167-0.045v-0.769c-0.053,0.008-0.106,0.021-0.163,0.033C-16.208-2.072-16.513-1.999-16.802-1.921
		L-16.802-1.921z M-16.802-0.42L-16.802-0.42v0.757l0.708-0.122c0,0,0.098-0.016,0.252-0.041v-0.781
		C-16.073-0.558-16.452-0.485-16.802-0.42L-16.802-0.42z M-16.802,1.09L-16.802,1.09v0.74l0.57-0.049c0,0,0.167-0.02,0.391-0.041
		V0.963C-16.126,0.996-16.484,1.045-16.802,1.09L-16.802,1.09z M-16.802,2.583L-16.802,2.583v0.74
		c0.269-0.012,0.594-0.024,0.96-0.041V2.506C-16.122,2.526-16.48,2.555-16.802,2.583L-16.802,2.583z M-16.802,4.097L-16.802,4.097
		v0.745l0.96-0.004V4.08C-16.126,4.097-16.484,4.097-16.802,4.097L-16.802,4.097z M-16.802,5.586L-16.802,5.586v0.757l0.96,0.085
		V5.61C-16.167,5.602-16.509,5.594-16.802,5.586L-16.802,5.586z M-16.802,7.095L-16.802,7.095v0.757
		c0.317,0.037,0.667,0.085,0.96,0.118v-0.79C-16.037,7.173-16.436,7.132-16.802,7.095L-16.802,7.095z M-16.802,8.601L-16.802,8.601
		V9.37c0.326,0.058,0.684,0.122,0.96,0.163V8.739C-16.029,8.719-16.427,8.658-16.802,8.601L-16.802,8.601z M-16.802,10.094
		L-16.802,10.094v0.757c0.382,0.098,0.79,0.195,0.956,0.228h0.004V10.29C-16.11,10.237-16.476,10.16-16.802,10.094L-16.802,10.094z
		 M-15.776-5.315L-15.776-5.315v0.806c0.317-0.093,0.773-0.199,1.273-0.22c0.346-0.012,0.615-0.02,0.818-0.028v-0.822
		C-14.397-5.567-15.093-5.53-15.776-5.315L-15.776-5.315z M-15.776-3.732L-15.776-3.732v0.781c0.179-0.049,0.619-0.146,1.225-0.167
		c0.33-0.012,0.615-0.021,0.867-0.028v-0.83c-0.252,0-0.456,0.016-0.456,0.016s-0.912,0.012-1.571,0.208L-15.776-3.732
		L-15.776-3.732z M-15.776-2.169L-15.776-2.169v0.773c0.22-0.049,0.578-0.114,1.038-0.143c0.777-0.041,0.5-0.016,0.842-0.02
		c0.061,0,0.134-0.004,0.211-0.004v-0.793c-0.395,0.008-1.066,0.017-1.367,0.049C-15.052-2.308-15.361-2.259-15.776-2.169
		L-15.776-2.169z M-15.776-0.619L-15.776-0.619v0.785c0.236-0.033,0.57-0.077,0.916-0.098c0.631-0.041,0.688-0.016,0.854-0.024
		c0.089,0,0.22,0,0.321,0v-0.806c-0.35,0.008-0.936,0.016-1.131,0.028c-0.289,0.012-0.493,0.021-0.928,0.11L-15.776-0.619
		L-15.776-0.619z M-15.776,0.956L-15.776,0.956v0.781c0.195-0.024,0.423-0.041,0.61-0.049c0.497-0.033,0.985-0.041,1.481-0.041V0.85
		h-0.684c0,0-0.594,0.024-0.993,0.057C-15.443,0.915-15.593,0.931-15.776,0.956L-15.776,0.956z M-15.776,2.501L-15.776,2.501v0.781
		c0.619-0.028,1.347-0.053,2.091-0.073V2.433c-0.163,0-0.285-0.004-0.305-0.004c-0.077,0-1.033,0.037-1.412,0.049
		C-15.479,2.481-15.614,2.489-15.776,2.501L-15.776,2.501z M-15.776,4.08L-15.776,4.08v0.757c0.696,0.021,1.392,0.024,2.091,0.024
		V4.056C-14.238,4.088-15.117,4.056-15.776,4.08L-15.776,4.08z M-15.776,5.61L-15.776,5.61v0.822
		c0.082,0.004,0.309,0.012,0.586,0.012h1.505V5.626c-0.447,0-0.643,0.016-0.773,0.016C-14.54,5.643-15.125,5.626-15.776,5.61
		L-15.776,5.61z M-15.776,7.185L-15.776,7.185v0.793l0.138,0.016c0.7,0.082,1.111,0.033,1.335,0.049
		c0.089,0,0.342,0.008,0.618,0.012V7.238C-13.925,7.229-15.313,7.205-15.776,7.185L-15.776,7.185z M-15.776,8.748L-15.776,8.748
		v0.793c0.635,0.09,0.814,0.106,1.343,0.106c0.24,0,0.484,0.008,0.749,0.008V8.874C-14.214,8.902-15.459,8.776-15.776,8.748
		L-15.776,8.748z M-15.776,10.297L-15.776,10.297v0.798c0.333,0.081,0.7,0.22,2.006,0.171c0.029,0,0.061,0,0.085,0v-0.838
		c-0.159,0-0.297,0.004-0.403,0.008C-14.417,10.44-15.158,10.412-15.776,10.297L-15.776,10.297z M-13.62,4.052L-13.62,4.052v0.81
		c0.708,0,1.416-0.008,2.124-0.016V4.019C-12.407,4.023-13.352,4.031-13.62,4.052L-13.62,4.052z M-13.62,5.626L-13.62,5.626v0.818
		h0.008c0,0,1.4,0.028,2.116,0.065V5.667c-0.635-0.008-1.143-0.016-1.392-0.024C-13.185,5.63-13.425,5.626-13.62,5.626L-13.62,5.626
		z M-13.62,7.238L-13.62,7.238v0.818c0.402,0.004,0.846,0.012,0.956,0.016c0.041,0.004,0.476,0.029,1.167,0.069V7.335L-13.62,7.238
		L-13.62,7.238z M-13.62,8.874L-13.62,8.874v0.785c0.325,0.013,0.679,0.024,1.09,0.053c0.114,0.009,0.476,0.037,1.033,0.073V8.963
		C-12.607,8.874-13.213,8.845-13.62,8.874L-13.62,8.874z M-13.62,10.428L-13.62,10.428v0.834c1.232-0.028,1.562,0.162,2.124,0.216
		v-0.854c-0.452-0.045-0.801-0.082-0.96-0.106C-12.912,10.453-13.303,10.432-13.62,10.428L-13.62,10.428z M-11.431,5.671
		L-11.431,5.671v0.842c0.325,0.012,1.204,0.041,2.238,0.061V5.708C-9.966,5.696-10.764,5.684-11.431,5.671L-11.431,5.671z
		 M-11.431,7.335L-11.431,7.335v0.806c0.598,0.033,1.375,0.077,2.238,0.122V7.425C-10.153,7.393-10.975,7.36-11.431,7.335
		L-11.431,7.335z M-11.431,8.971L-11.431,8.971v0.822c0.574,0.036,1.343,0.089,2.238,0.142V9.15
		c-0.578-0.04-1.034-0.073-1.334-0.098C-10.861,9.02-11.162,8.996-11.431,8.971L-11.431,8.971z M-11.431,10.631L-11.431,10.631
		v0.847c0.293,0.024,1.265,0.109,2.238,0.194v-0.838C-9.966,10.77-10.792,10.692-11.431,10.631L-11.431,10.631z M-9.128,5.708
		L-9.128,5.708v0.871c0.822,0.016,1.729,0.033,2.531,0.045V5.74C-7.134,5.732-8.103,5.724-9.128,5.708L-9.128,5.708z M-9.128,7.429
		L-9.128,7.429v0.838c0.798,0.041,1.66,0.086,2.531,0.122V7.506C-7.443,7.482-8.33,7.458-9.128,7.429L-9.128,7.429z M-9.128,9.15
		L-9.128,9.15v0.79c0.765,0.049,1.62,0.098,2.531,0.154V9.281C-7.59,9.24-8.444,9.191-9.128,9.15L-9.128,9.15z M-6.532,7.51
		L-6.532,7.51v0.883c0.977,0.045,1.957,0.086,2.844,0.114V7.592C-4.367,7.571-5.413,7.543-6.532,7.51L-6.532,7.51z M-6.532,9.285
		L-6.532,9.285v0.81c0.903,0.053,1.863,0.105,2.844,0.154V9.394C-4.721,9.362-5.677,9.321-6.532,9.285L-6.532,9.285z M-3.623,9.394
		L-3.623,9.394v0.854c1.013,0.053,2.047,0.102,3.072,0.139V9.48C-1.633,9.456-2.662,9.427-3.623,9.394L-3.623,9.394z M16.352,9.48
		L16.352,9.48l-0.009,0.875c1.034-0.017,2.026-0.045,2.946-0.073l0.008-0.903C18.37,9.415,17.385,9.452,16.352,9.48L16.352,9.48z
		 M19.387,7.547L19.387,7.547v0.919c0.813-0.032,1.725-0.064,2.645-0.105V7.47C20.999,7.506,20.038,7.535,19.387,7.547L19.387,7.547
		z M19.379,9.37L19.379,9.37v0.907c0.96-0.036,1.854-0.077,2.645-0.126V9.248C21.218,9.289,20.331,9.333,19.379,9.37L19.379,9.37z
		 M22.122,5.732L22.122,5.732v0.891c0.708-0.012,1.546-0.029,2.344-0.045L24.473,5.7C23.57,5.712,22.659,5.724,22.122,5.732
		L22.122,5.732z M22.122,7.466L22.122,7.466l-0.009,0.891c0.814-0.037,1.62-0.069,2.353-0.102V7.384
		C23.708,7.409,22.894,7.441,22.122,7.466L22.122,7.466z M22.113,9.244L22.113,9.244l-0.008,0.899
		c0.969-0.065,1.741-0.122,2.352-0.171l0.009-0.867C23.782,9.15,22.992,9.195,22.113,9.244L22.113,9.244z M22.105,10.99
		L22.105,10.99v0.927c0.749-0.057,1.587-0.142,2.352-0.231v-0.887C23.497,10.879,22.552,10.957,22.105,10.99L22.105,10.99z
		 M24.554,5.7L24.554,5.7V6.57c0.725-0.016,1.425-0.032,1.962-0.044V5.675C26.011,5.684,25.287,5.691,24.554,5.7L24.554,5.7z
		 M24.546,7.376L24.546,7.376v0.871c0.789-0.032,1.473-0.064,1.961-0.097l0.009-0.847C25.995,7.323,25.303,7.352,24.546,7.376
		L24.546,7.376z M24.546,9.101L24.546,9.101v0.863c0.952-0.073,1.538-0.131,1.961-0.171v-0.83
		C26.036,9.003,25.369,9.048,24.546,9.101L24.546,9.101z M31.268,10.875L31.268,10.875v-0.757l-0.455,0.105
		c0,0-0.065,0.017-0.163,0.041v0.785C30.78,11.014,31.024,10.949,31.268,10.875L31.268,10.875z M31.268,9.39L31.268,9.39V8.605
		l-0.618,0.13v0.773c0.049-0.008,0.105-0.017,0.163-0.024C30.967,9.456,31.122,9.422,31.268,9.39L31.268,9.39z M31.268,7.856
		L31.268,7.856V7.107c-0.195,0.024-0.415,0.049-0.618,0.065V7.95c0.057-0.008,0.114-0.016,0.163-0.024
		C30.967,7.905,31.122,7.881,31.268,7.856L31.268,7.856z M31.268,6.343L31.268,6.343V5.602c-0.269,0-0.521,0.008-0.61,0.016H30.65
		v0.765C30.862,6.367,31.081,6.355,31.268,6.343L31.268,6.343z M31.268,4.861L31.268,4.861l0.008-0.765
		c-0.235-0.008-0.463-0.012-0.626-0.021v0.79C30.886,4.866,31.097,4.861,31.268,4.861L31.268,4.861z M31.276,3.323L31.276,3.323
		V2.575c-0.252-0.024-0.479-0.053-0.545-0.061C30.707,2.51,30.682,2.51,30.65,2.51v0.777C30.813,3.299,31.048,3.307,31.276,3.323
		L31.276,3.323z M31.276,1.826L31.276,1.826V1.078c-0.187-0.033-0.398-0.065-0.618-0.094v0.757
		C30.862,1.769,31.073,1.798,31.276,1.826L31.276,1.826z M31.276,0.316L31.276,0.316V-0.42l-0.463-0.118
		c0,0-0.049-0.016-0.155-0.037V0.19l0,0C30.829,0.223,31.057,0.272,31.276,0.316L31.276,0.316z M31.276-1.165L31.276-1.165v-0.777
		c-0.211-0.073-0.431-0.142-0.618-0.191v0.797C30.829-1.287,31.057-1.226,31.276-1.165L31.276-1.165z M31.276-2.699L31.276-2.699
		v-0.732l-0.618-0.224v0.753C30.837-2.849,31.065-2.772,31.276-2.699L31.276-2.699z M31.285-4.18L31.285-4.18v-0.765l-0.618-0.269
		L30.658-4.44c0.024,0.004,0.033,0.008,0.049,0.016C30.862-4.354,31.073-4.269,31.285-4.18L31.285-4.18z M-21.839,15.539
		L-21.839,15.539v7.804c0,0.794,0.545,1.685,1.408,1.685h55.264c0.862,0,1.408-0.891,1.408-1.685v-7.804H-21.839L-21.839,15.539z
		 M-22.051,23.342c0,0.468,0.171,0.969,0.48,1.335c0.276,0.333,0.667,0.562,1.139,0.562h55.264c0.472,0,0.862-0.229,1.14-0.562
		c0.309-0.366,0.479-0.867,0.479-1.335v-7.804v-0.212h-0.211h-58.08h-0.212v0.212V23.342z"/>
	<linearGradient id="SVGID_2_" gradientUnits="userSpaceOnUse" x1="-10.7227" y1="-1.1123" x2="25.979" y2="-1.1123">
		<stop  offset="0" style="stop-color:#CCCDCF"/>
		<stop  offset="0.2" style="stop-color:#DBDBDA"/>
		<stop  offset="0.41" style="stop-color:#BCBDBE"/>
		<stop  offset="0.61" style="stop-color:#AEB0B2"/>
		<stop  offset="0.81" style="stop-color:#BDBDBE"/>
		<stop  offset="1" style="stop-color:#B2B3B3"/>
	</linearGradient>
	<path fill-rule="evenodd" clip-rule="evenodd" fill="url(#SVGID_2_)" d="M-7.769,3.238C-7.411,3.413-7.061,3.6-6.723,3.787
		c0.24,0.13,0.476,0.269,0.712,0.407l0.261,0.163c1.685,1.017,3.3,1.904,5.143,2.612c0.443,0.171,0.887,0.326,1.334,0.464
		c2.311,0.741,4.7,1.115,7.145,1.14c2.572,0.024,5.102-0.317,7.536-1.18c1.701-0.603,3.157-1.4,4.695-2.312l0.008-0.008l1.164-0.671
		l1.66-0.924c1.009-0.562,1.221-0.712,2.4-1.237c0.212-0.094,0.432-0.183,0.644-0.265v-9.916v-0.028
		c-0.554-0.244-1.156-0.46-1.701-0.639c-7.837-1.961-15.689-2.677-23.551-1.859c-2.832,0.293-5.664,0.785-8.496,1.489
		C-7.85-8.957-7.936-8.932-8.021-8.912c-0.895,0.281-1.791,0.565-2.686,0.85l-0.016,9.998c0.028,0.012,0.057,0.021,0.081,0.028
		C-9.673,2.343-8.696,2.77-7.769,3.238z"/>
</g>
</svg>
