<?xml version="1.0" encoding="utf-8"?>
<!-- Generator: Adobe Illustrator 16.0.0, SVG Export Plug-In . SVG Version: 6.00 Build 0)  -->
<!DOCTYPE svg PUBLIC "-//W3C//DTD SVG 1.1//EN" "http://www.w3.org/Graphics/SVG/1.1/DTD/svg11.dtd">
<svg version="1.1" id="Layer_1" xmlns="http://www.w3.org/2000/svg" xmlns:xlink="http://www.w3.org/1999/xlink" x="0px" y="0px"
	 width="80px" height="50px" viewBox="-32.32 -17.32 80 50" enable-background="new -32.32 -17.32 80 50" xml:space="preserve">
<g>
	<linearGradient id="SVGID_1_" gradientUnits="userSpaceOnUse" x1="-21.8413" y1="-4.5005" x2="35.3957" y2="26.9632">
		<stop  offset="0" style="stop-color:#001D3E"/>
		<stop  offset="0.2" style="stop-color:#001936"/>
		<stop  offset="0.5" style="stop-color:#002D4F"/>
		<stop  offset="0.81" style="stop-color:#030E2D"/>
		<stop  offset="1" style="stop-color:#425769"/>
	</linearGradient>
	<path fill-rule="evenodd" clip-rule="evenodd" fill="url(#SVGID_1_)" d="M-1.993,14.241c0,0,8.083-1.259,20.616-0.076
		c0.141,0.012,0.283,0.017,0.434,0.027c1.498-0.19,4.537-0.439,5.316-1.839h0.131v0.559l-0.119,0.027c0,0-0.087,0.673-1.508,1.192
		c-0.185,0.065-0.402,0.143-0.662,0.218l0.012,2.777h4.86v-4.758h0.118c-0.053-0.005-1.345-0.065-1.345-0.065
		s-1.855,0.022-2.474,0.039c-0.607,0.011-12.012,0.424-15.017,0.374c-2.99-0.048-13.335-0.315-15.158-0.363l-1.736-0.043
		c0,0-0.868-0.065-1.454,0.021c-0.548,0.082-0.999,0.088-1.037,0.088h0.109v4.708h4.389l0.011-3.027l0,0
		c-0.244-0.075-0.467-0.151-0.672-0.228c-0.423-0.163-0.82-0.314-1.178-0.602c-0.135-0.104-0.277-0.233-0.375-0.358l0.076-0.591
		c0,0,0.554,0.461,1.15,0.666c0.607,0.201,2.078,0.885,5.279,1.242l0.385,0.045L-1.993,14.241L-1.993,14.241z M31.849,23.161h0.771
		c1.117,0,2.299,0.943,2.299,1.914v1.059c0,1.161-1.127,2.203-2.299,2.203h-0.771V23.161L31.849,23.161z M-21.377,23.063
		L-21.377,23.063h2.208v5.945h1.627v-5.945h2.203v-0.576h-6.038V23.063L-21.377,23.063z M-7.494,29.008L-7.494,29.008h4.894v-0.672
		h-3.26v-2.594h2.685v-0.576h-2.685v-2.104h3.26v-0.576h-4.894V29.008L-7.494,29.008z M-14.536,29.008L-14.536,29.008h1.628v-3.07
		h2.593v3.07h1.628v-6.521h-1.628v2.875h-2.593v-2.875h-1.628V29.008L-14.536,29.008z M13.437,22.282L13.437,22.282
		c2.039,0,3.688,1.529,3.688,3.418c0,1.888-1.649,3.423-3.688,3.423c-2.041,0-3.69-1.535-3.69-3.423
		C9.747,23.811,11.396,22.282,13.437,22.282L13.437,22.282z M13.437,22.845L13.437,22.845c-1.086,0-1.965,1.28-1.965,2.854
		c0,1.572,0.879,2.853,1.965,2.853c1.084,0,1.953-1.28,1.953-2.853C15.39,24.125,14.521,22.845,13.437,22.845L13.437,22.845z
		 M0.66,22.509L0.66,22.509l2.522,6.543h0.771l1.334-3.288l1.291,3.288H7.35l2.539-6.543H8.825l-1.617,4.058l-1.66-4.047
		l-1.671,4.047L2.26,22.509H0.66L0.66,22.509z M24.525,29.008L24.525,29.008h4.991v-0.672h-3.363v-5.85h-1.628V29.008L24.525,29.008
		z M19.632,23.161L19.632,23.161h0.771c0.477,0,0.867,0.384,0.867,0.856V24.5c0,0.77-0.824,0.959-1.638,0.959V23.161L19.632,23.161z
		 M18.004,29.008L18.004,29.008h1.628v-2.973c0.51,0.043,2.126,2.457,2.398,2.973l1.833-0.011L21.65,25.84
		c0.543-0.288,1.346-0.629,1.346-1.433v-0.575c-0.119-0.933-1.453-1.346-2.495-1.346h-2.496V29.008L18.004,29.008z M30.211,29.008
		L30.211,29.008h2.69c1.92,0,3.83-1.172,3.83-2.973v-0.479c0-1.865-1.715-3.07-3.548-3.07h-2.973V29.008L30.211,29.008z
		 M-32.32,17.126L-32.32,17.126h8.756l-0.011-4.024l-0.749-0.206v0.011l-0.086-0.022v-0.011l-1.042-0.26v-0.727
		c0,0,0.488,0.118,1.042,0.248v-1.009c-0.57-0.118-1.042-0.216-1.042-0.216V9.966c0,0,0.466,0.098,1.042,0.195V9.141
		c-0.553-0.086-1.042-0.163-1.042-0.163V8.012c0,0,0.461,0.065,1.042,0.137v-1.01c-0.553-0.06-1.042-0.113-1.042-0.113V6.059
		l1.042,0.088v-1.01c-0.602-0.011-1.042-0.021-1.042-0.021V4.15l1.042-0.005V3.146c-0.576-0.005-1.042-0.017-1.042-0.017V2.186
		c0,0,0.391-0.027,1.042-0.06V1.133c-0.576,0.049-1.042,0.087-1.042,0.087V0.233l1.042-0.098v-0.977
		c-0.576,0.076-1.042,0.141-1.042,0.141v-0.977l1.042-0.173v-0.999c-0.564,0.109-1.042,0.207-1.042,0.207v-0.966l1.042-0.233v-1.01
		c-0.553,0.146-1.042,0.283-1.042,0.283v-1.01l1.042-0.276v-0.977c-0.576,0.179-1.042,0.336-1.042,0.336v-1.003l1.042-0.342V-8.86
		l-1.042,0.391v-0.966l1.042-0.418v-0.992l-1.042,0.445v-0.944l2.707-1.221c0,0,0.228-0.169,1.079-0.276
		c1.156-0.142,2.312-0.012,3.445-0.337c0.743-0.212,1.801-0.467,2.914-0.705c2.191-0.478,4.383-1.004,6.581-1.443
		c11.165-2.229,22.976-2.197,34.14,0.076c3.06,0.618,6.555,1.335,9.538,2.295c0.25,0.081,0.435,0.146,0.846,0.146
		c0.402,0.011,1.237,0.011,1.303,0.021c0.055,0,0.879,0.044,1.411,0.261c0.542,0.211,2.257,1.183,2.257,1.183v0.966L39.9-10.818
		v0.96c0.467,0.223,0.869,0.418,0.869,0.418v0.96L39.9-8.86v1.021c0.456,0.195,0.879,0.357,0.879,0.357v0.966L39.9-6.841v0.971
		c0.467,0.168,0.879,0.32,0.879,0.32l-0.032,0.998c0,0-0.391-0.152-0.847-0.309v1.025c0.467,0.13,0.879,0.238,0.879,0.238
		l-0.021,0.977L39.89-2.837v0.977c0.477,0.103,0.899,0.206,0.899,0.206l-0.021,0.977c0,0-0.358-0.076-0.879-0.174v0.993
		c0.488,0.07,0.867,0.135,0.867,0.135l0.012,0.955c0,0-0.436-0.054-0.879-0.098v0.993c0.443,0.026,0.834,0.049,0.834,0.049
		l0.012,0.998c0,0-0.402-0.011-0.846-0.021v1.02c0.606,0,0.911,0,0.911,0v0.977c0,0-0.456,0-0.911,0.006v0.981
		c0.443-0.032,0.781-0.054,0.813-0.054v0.954c0,0-0.348,0.055-0.813,0.114l-0.011,0.993c0.499-0.076,0.878-0.131,0.878-0.131v0.938
		l-0.878,0.185v1.047c0.52-0.118,0.933-0.232,0.933-0.232v0.981l-0.933,0.223v0.999c0.466-0.147,0.91-0.288,0.91-0.288v0.727
		c0,0-1.551,0.511-2.126,0.661v3.874h9.017v11.687c0,1.942-1.422,3.525-3.157,3.525h-73.685c-1.736,0-3.158-1.583-3.158-3.525
		V17.126L-32.32,17.126z M-5.758,17.126L-5.758,17.126c0.005-1.215,0.005-2.364,0.011-2.805c0.835,0.228,1.855,0.45,3.038,0.656
		l-0.005,2.148H-5.758L-5.758,17.126z M-1.955,17.126L-1.955,17.126c0.006-0.781,0.006-1.519,0.006-2.028
		c2.767,0.423,6.353,0.705,10.708,0.668c3.776-0.039,6.608-0.234,8.725-0.495c0.01,0.462,0.01,1.14,0.01,1.855H-1.955L-1.955,17.126
		z M18.254,17.126L18.254,17.126v-1.953c1.378-0.195,2.419-0.411,3.2-0.606c0,0.563,0,1.545,0.011,2.56H18.254L18.254,17.126z
		 M27.205,12.369L27.205,12.369h0.109v1.227l0.119-0.005l0.012-1.237C27.302,12.364,27.216,12.369,27.205,12.369L27.205,12.369z
		 M-11.129,13.536L-11.129,13.536v-1.117h0.108c0,0-1.443-0.125-3.071-0.271v1.117C-12.767,13.383-11.466,13.508-11.129,13.536
		L-11.129,13.536z M23.137,7.763L23.137,7.763c-0.012,0-0.032,0-0.055,0c-0.868,0.467-1.823,0.934-2.897,1.367
		c0.141-0.005,1.65-0.065,3.624-0.141l0.011-1.231c-0.261,0.005-0.477,0.005-0.64,0.005l0,0h-0.011H23.137L23.137,7.763
		L23.137,7.763z M25.187,6.575L25.187,6.575c0.748-0.005,1.52-0.037,2.268-0.049l0.011-1.193l-0.151,0.011L27,5.517l-0.348,0.2
		c-0.379,0.212-0.77,0.439-1.193,0.689L25.187,6.575L25.187,6.575z M-17.162-12.788L-17.162-12.788l-0.022,14.696
		c0.478,0.174,3.938,1.471,6.743,3.169l0.353,0.212c3.13,1.898,9.353,5.674,18.652,5.767c8.571,0.082,13.509-2.837,16.817-4.796
		c0.412-0.25,0.813-0.482,1.184-0.689l0.357-0.2c1.303-0.732,2.82-1.595,4.058-2.229c1.031-0.521,1.91-0.912,2.702-1.161v-14.528
		h0.044v-0.006c0,0-1.118-0.559-3.007-1.188c-14.484-3.624-29.013-4.106-43.596-0.407C-14.438-13.667-16.625-12.961-17.162-12.788
		L-17.162-12.788z M33.857-12.223L33.857-12.223v1.074l1.183,0.331c0,0,0.141,0.064,0.563,0.086c0.131,0.006,0.305,0.012,0.5,0.017
		v-1.058h0.054c-0.922-0.033-1.074-0.092-1.367-0.189C34.541-12.05,34.074-12.169,33.857-12.223L33.857-12.223z M33.857-10.058
		L33.857-10.058v1.106c0.281,0.07,1.128,0.287,1.16,0.298c0.022,0.006,0.338,0.055,0.738,0.076c0.088,0,0.206,0,0.348,0.011v-1.085
		c-0.185-0.011-0.305-0.021-0.478-0.021c-0.401,0-0.999-0.195-1.183-0.25C34.313-9.956,33.998-10.026,33.857-10.058L33.857-10.058z
		 M33.857-7.867L33.857-7.867v1.134l1.335,0.238c0.281,0.05,0.597,0.065,0.899,0.076v-1.112c-0.434-0.011-0.781-0.037-1.117-0.103
		C34.551-7.731,34.074-7.824,33.857-7.867L33.857-7.867z M33.857-5.659L33.857-5.659v1.074l1.215,0.2c0,0,0.543,0.027,1.02,0.038
		v-1.03c-0.346,0-0.704-0.021-1.009-0.076C34.671-5.529,34.269-5.605,33.857-5.659L33.857-5.659z M33.857-3.478L33.857-3.478v1.085
		c0.358,0.044,1.389,0.152,1.41,0.163c0.033,0,0.315,0.032,0.824,0.032v-1.063c-0.141-0.011-0.781-0.032-1.225-0.086
		C34.508-3.386,34.074-3.445,33.857-3.478L33.857-3.478z M33.857-1.313L33.857-1.313v1.091c0.379,0.032,1.498,0.107,2.051,0.13
		c0.065,0,0.119,0.005,0.184,0.005v-1.068c-0.434-0.011-0.899-0.043-1.236-0.076C34.486-1.27,34.063-1.296,33.857-1.313
		L33.857-1.313z M33.857,0.868L33.857,0.868v1.09c0.304,0.012,1.453,0.044,2.234,0.055V0.971c-0.423-0.006-0.846-0.012-1.074-0.033
		C34.649,0.906,34.095,0.884,33.857,0.868L33.857,0.868z M31.524,3.059L31.524,3.059c-0.228,0.114-0.456,0.233-0.706,0.354v0.77
		c0.771,0,1.715,0,2.616,0l0.011-1.128C32.946,3.065,31.937,3.065,31.524,3.059L31.524,3.059z M30.71,3.471L30.71,3.471
		c-0.413,0.218-0.857,0.456-1.324,0.711c0.271,0,0.738,0,1.324,0V3.471L30.71,3.471z M16.181,10.416L16.181,10.416
		c-0.185,0.05-0.38,0.093-0.586,0.13l-0.01,1.026c1.432-0.022,2.832-0.043,4.177-0.07l0.011-1.167
		C18.613,10.368,17.418,10.395,16.181,10.416L16.181,10.416z M15.488,10.573L15.488,10.573c-1.347,0.283-2.822,0.488-4.439,0.586
		v0.473c1.498-0.017,2.975-0.037,4.428-0.06L15.488,10.573L15.488,10.573z M10.962,11.17L10.962,11.17
		c-0.771,0.043-1.563,0.065-2.397,0.054c-0.727-0.011-1.422-0.032-2.111-0.086v0.569c1.503-0.027,3.011-0.049,4.508-0.07V11.17
		L10.962,11.17z M6.367,11.131L6.367,11.131c-1.601-0.113-3.098-0.341-4.492-0.634v1.188c1.654,0.039,3.184,0.05,4.492,0.027V11.131
		L6.367,11.131z M1.783,10.475L1.783,10.475c-0.109-0.021-0.228-0.048-0.337-0.075c-1.383-0.017-2.723-0.043-4.014-0.065v1.21
		c1.492,0.06,2.962,0.108,4.351,0.136V10.475L1.783,10.475z M-2.926,9.087L-2.926,9.087c-1.063-0.402-2.029-0.825-2.919-1.248
		c-0.12,0-0.445-0.011-0.906-0.022v1.221C-5.107,9.092-3.718,9.12-2.926,9.087L-2.926,9.087z M-8.313,6.538L-8.313,6.538
		c-0.711-0.402-1.329-0.781-1.86-1.102l-0.142-0.082l-0.314-0.011v1.183C-9.669,6.538-8.834,6.547-8.313,6.538L-8.313,6.538z
		 M-12.458,4.161L-12.458,4.161c-0.559-0.282-1.112-0.548-1.633-0.787v0.766C-13.548,4.139-13.001,4.15-12.458,4.161L-12.458,4.161z
		 M-14.178,3.336L-14.178,3.336c-0.223-0.104-0.445-0.201-0.651-0.293c-0.363,0-1.323,0-2.333,0.005V4.15
		c0.998-0.011,1.991-0.017,2.984-0.011V3.336L-14.178,3.336z M-17.357,1.948L-17.357,1.948l0.005-1.102
		c-0.261,0.016-1.33,0.081-1.47,0.087c-0.109,0.005-0.781,0.005-1.258,0v1.036C-19.164,1.948-18.226,1.936-17.357,1.948
		L-17.357,1.948z M-17.347-0.266L-17.347-0.266v-1.085l-1.616,0.152c0,0-0.51,0.021-0.722,0.021h-0.396v1.063
		c0.238,0,0.477,0,0.715,0c0,0,0.641-0.021,0.846-0.032C-18.345-0.164-17.563-0.245-17.347-0.266L-17.347-0.266z M-17.347-2.447
		L-17.347-2.447v-1.086c-0.233,0.027-1.215,0.146-1.502,0.163c-0.331,0.022-0.526,0.011-0.949,0.038c0,0-0.109,0.006-0.282,0.006
		v1.074h0.119c0,0,0.58,0,1.112-0.049C-18.388-2.344-17.563-2.425-17.347-2.447L-17.347-2.447z M-17.347-4.639L-17.347-4.639
		l0.006-1.085l-1.66,0.229c0,0-0.494,0.032-0.906,0.037c-0.043,0.006-0.108,0.006-0.173,0.006V-4.4c0.466,0,1.047-0.012,1.274-0.044
		C-18.545-4.476-17.574-4.607-17.347-4.639L-17.347-4.639z M-17.341-6.863L-17.341-6.863v-1.086l-1.552,0.288
		c0,0-0.472,0.049-0.949,0.049c-0.076,0-0.158,0-0.238,0v1.102c0.455-0.017,0.803-0.038,1.052-0.06
		C-18.638-6.603-17.607-6.809-17.341-6.863L-17.341-6.863z M-17.335-9.055L-17.335-9.055v-1.106l-1.502,0.314
		c0,0-0.505,0.098-1.069,0.098c-0.06,0-0.114,0-0.173,0v1.096c0.412-0.011,0.64-0.011,0.803-0.032
		C-19.028-8.724-17.607-9-17.335-9.055L-17.335-9.055z M-17.335-11.279L-17.335-11.279v-1.064c-0.195,0.055-0.982,0.261-1.53,0.369
		c-0.347,0.065-0.76,0.076-1.215,0.087v1.074c0.748-0.021,0.856-0.032,1.356-0.136C-18.16-11.062-17.477-11.242-17.335-11.279
		L-17.335-11.279z M-24.323-10.878L-24.323-10.878v0.988l1.27-0.5l0.011-0.01v-1.031L-24.323-10.878L-24.323-10.878z
		 M-22.956-11.464L-22.956-11.464v1.031c0.271-0.098,1.047-0.336,2.181-0.369c0.239,0,0.439-0.011,0.607-0.011v-1.074
		c-0.098,0-0.206,0.006-0.303,0.011c-0.255,0-0.521,0.012-0.787,0.033c-0.917,0.07-1.628,0.347-1.628,0.347L-22.956-11.464
		L-22.956-11.464z M36.211-11.773L36.211-11.773v1.058c0.413,0.006,0.856,0.006,0.999,0.022c0.228,0.021,0.954-0.012,1.572,0.293
		l0.065,0.032v-1.004c-0.206-0.114-0.792-0.363-1.985-0.386C36.613-11.757,36.396-11.767,36.211-11.773L36.211-11.773z
		 M38.968-11.301L38.968-11.301v0.987c0.238,0.114,0.531,0.261,0.824,0.402v-0.967L38.968-11.301L38.968-11.301z M36.211-9.652
		L36.211-9.652v1.085c0.401,0.011,0.879,0.022,0.987,0.022c0.152,0,1.053,0.075,1.649,0.271v-1.042
		c-0.173-0.081-0.694-0.281-1.585-0.303C36.732-9.63,36.429-9.641,36.211-9.652L36.211-9.652z M36.211-7.525L36.211-7.525v1.106
		c0.315,0,0.618,0,0.911,0c0.108,0,1.074,0.044,1.66,0.195c0.022,0,0.043,0.011,0.065,0.011v-1.014
		c-0.195-0.071-0.804-0.261-1.628-0.277C36.84-7.514,36.504-7.519,36.211-7.525L36.211-7.525z M36.211-5.376L36.211-5.376
		l-0.011,1.03c0.043,0,0.086,0,0.119,0c0.521,0.011,1.932,0.032,2.441,0.195c0.021,0.011,0.055,0.017,0.087,0.022v-1.053
		c-0.087-0.021-0.173-0.044-0.238-0.049c-0.565-0.082-0.934-0.168-1.585-0.158C36.787-5.382,36.494-5.376,36.211-5.376L36.211-5.376
		z M36.201-3.261L36.201-3.261v1.063c0.086,0,0.174,0,0.261,0c0.704-0.011,1.735,0.032,2.387,0.13v-1.035
		c-0.282-0.061-0.727-0.125-1.367-0.158H36.201L36.201-3.261z M36.201-1.15L36.201-1.15v1.068c0.662,0,1.53-0.043,2.289,0.038
		c0.108,0.011,0.229,0.026,0.348,0.038l0.011-1.01l-0.087-0.011c-1.042-0.124-1.596-0.103-2.104-0.108
		C36.527-1.14,36.375-1.145,36.201-1.15L36.201-1.15z M36.201,0.971L36.201,0.971v1.041c0.043,0,0.098,0,0.141,0
		c0.857,0,2.019,0.027,2.496,0.055V1.025c-0.402-0.026-1.172-0.065-1.595-0.054C36.993,0.976,36.602,0.976,36.201,0.971
		L36.201,0.971z M36.201,3.114L36.201,3.114V4.15c0.249,0,1.53,0.021,2.637,0.027V3.12c-0.021-0.006-0.032-0.006-0.055-0.012
		C38.415,3.076,36.732,3.12,36.201,3.114L36.201,3.114z M36.201,5.208L36.201,5.208l-0.012,1.091
		c0.521-0.011,0.793-0.011,1.129-0.011c0.25,0,0.869-0.033,1.52-0.076v-1.02C38.337,5.203,36.83,5.17,36.201,5.208L36.201,5.208z
		 M36.189,7.319L36.189,7.319v1.068c0.143,0,0.261,0.006,0.445,0.006c0.511,0,1.443-0.012,2.191-0.088l0.012-1.041
		c-0.044,0-0.076,0.006-0.119,0.006c-0.869,0.059-1.433,0.01-1.878,0.016C36.7,7.296,36.461,7.302,36.189,7.319L36.189,7.319z
		 M36.189,9.466L36.189,9.466v1.021c0.12,0,0.24,0,0.358,0c0.879,0.006,1.585-0.012,2.278-0.104v-1.03
		c-0.205,0.021-1.052,0.093-1.865,0.103C36.7,9.456,36.439,9.461,36.189,9.466L36.189,9.466z M36.189,11.583L36.189,11.583v1.041
		c0.109-0.005,0.207-0.005,0.315,0c0.944,0.012,1.921-0.098,2.321-0.173v-1.047c-0.281,0.06-0.736,0.136-1.225,0.146
		C37.263,11.549,36.732,11.561,36.189,11.583L36.189,11.583z M36.136,12.624L36.136,12.624h-0.065l0.011-1.036
		c-0.76,0.027-1.508,0.071-1.78,0.142c-0.075,0.021-0.358,0.061-0.77,0.098v1.015h-0.12l0.011-0.999
		c-0.684,0.065-1.648,0.152-2.625,0.24v1.17c1.833-0.205,3.353-0.422,3.461-0.438C34.421,12.798,35.267,12.646,36.136,12.624
		L36.136,12.624z M36.082,10.493L36.082,10.493V9.471c-0.608,0.018-1.162,0.05-1.605,0.088c-0.109,0.005-0.436,0.037-0.944,0.075
		v1.097c0.391-0.038,0.672-0.076,0.965-0.104C34.497,10.627,35.224,10.52,36.082,10.493L36.082,10.493z M36.082,8.387L36.082,8.387
		V7.324c-0.531,0.027-1.14,0.06-1.367,0.06c-0.065,0-0.511,0.017-1.172,0.043v1.123c0.293-0.016,0.521-0.032,0.684-0.049
		C35.355,8.415,35.789,8.393,36.082,8.387L36.082,8.387z M36.082,6.303L36.082,6.303v-1.09c-0.662,0.043-1.433,0.032-1.726,0.032
		c-0.065,0-0.358,0.006-0.813,0.011v1.129c0.271-0.006,0.51-0.011,0.705-0.021C35.094,6.331,35.668,6.315,36.082,6.303L36.082,6.303
		z M36.082,4.15L36.082,4.15V3.108c-0.521-0.011-2.019-0.064-2.452-0.054h-0.077v1.123C34.541,4.171,35.485,4.161,36.082,4.15
		L36.082,4.15z M-24.323-8.892L-24.323-8.892v1.025l0.771-0.25c0,0,0.19-0.081,0.51-0.179V-9.37
		c-0.039,0.011-0.076,0.027-0.114,0.038L-24.323-8.892L-24.323-8.892z M-24.323-6.863L-24.323-6.863v0.986l1.248-0.33
		c0,0,0.011-0.006,0.033-0.006v-1.053C-23.423-7.145-23.895-6.999-24.323-6.863L-24.323-6.863z M-24.323-4.873L-24.323-4.873v1.015
		l1.058-0.238c0,0,0.082-0.022,0.223-0.06v-1.025c-0.071,0.011-0.141,0.027-0.217,0.043C-23.531-5.073-23.938-4.975-24.323-4.873
		L-24.323-4.873z M-24.323-2.871L-24.323-2.871v1.01l0.944-0.163c0,0,0.13-0.021,0.336-0.054V-3.12
		C-23.352-3.054-23.856-2.957-24.323-2.871L-24.323-2.871z M-24.323-0.857L-24.323-0.857v0.986l0.76-0.064
		c0,0,0.222-0.027,0.521-0.055v-1.036C-23.423-0.982-23.9-0.917-24.323-0.857L-24.323-0.857z M-24.323,1.133L-24.323,1.133v0.987
		c0.358-0.017,0.792-0.032,1.281-0.054V1.031C-23.417,1.057-23.895,1.096-24.323,1.133L-24.323,1.133z M-24.323,3.152L-24.323,3.152
		v0.993l1.281-0.006v-1.01C-23.423,3.152-23.9,3.152-24.323,3.152L-24.323,3.152z M-24.323,5.137L-24.323,5.137v1.01l1.281,0.113
		V5.17C-23.477,5.159-23.933,5.148-24.323,5.137L-24.323,5.137z M-24.323,7.15L-24.323,7.15v1.009
		c0.423,0.049,0.89,0.114,1.281,0.158V7.264C-23.303,7.253-23.835,7.199-24.323,7.15L-24.323,7.15z M-24.323,9.158L-24.323,9.158
		v1.024c0.435,0.077,0.912,0.163,1.281,0.218V9.341C-23.292,9.315-23.824,9.233-24.323,9.158L-24.323,9.158z M-24.323,11.149
		L-24.323,11.149v1.009c0.51,0.13,1.053,0.261,1.275,0.304h0.006v-1.053C-23.4,11.338-23.889,11.236-24.323,11.149L-24.323,11.149z
		 M-22.956-9.397L-22.956-9.397v1.074c0.423-0.124,1.031-0.266,1.698-0.293c0.461-0.017,0.819-0.026,1.09-0.038V-9.75
		C-21.117-9.733-22.044-9.684-22.956-9.397L-22.956-9.397z M-22.956-7.287L-22.956-7.287v1.042c0.239-0.065,0.825-0.195,1.633-0.223
		c0.439-0.017,0.82-0.027,1.156-0.038v-1.106c-0.336,0-0.607,0.021-0.607,0.021s-1.215,0.017-2.094,0.276L-22.956-7.287
		L-22.956-7.287z M-22.956-5.203L-22.956-5.203v1.03c0.293-0.065,0.771-0.151,1.384-0.19c1.036-0.054,0.667-0.021,1.123-0.026
		c0.081,0,0.179-0.006,0.282-0.006v-1.058c-0.526,0.011-1.421,0.021-1.823,0.064C-21.99-5.388-22.402-5.323-22.956-5.203
		L-22.956-5.203z M-22.956-3.136L-22.956-3.136v1.047c0.314-0.043,0.76-0.103,1.221-0.13c0.841-0.054,0.917-0.021,1.14-0.032
		c0.119,0,0.293,0,0.428,0v-1.074c-0.466,0.011-1.248,0.021-1.508,0.037c-0.385,0.017-0.657,0.027-1.237,0.146L-22.956-3.136
		L-22.956-3.136z M-22.956-1.037L-22.956-1.037v1.042c0.261-0.032,0.564-0.055,0.814-0.065c0.662-0.043,1.313-0.055,1.975-0.055
		v-1.063h-0.912c0,0-0.792,0.032-1.323,0.076C-22.511-1.091-22.712-1.069-22.956-1.037L-22.956-1.037z M-22.956,1.025L-22.956,1.025
		v1.042c0.825-0.038,1.796-0.07,2.789-0.098V0.933c-0.217,0-0.379-0.006-0.407-0.006c-0.103,0-1.378,0.049-1.882,0.065
		C-22.56,0.999-22.739,1.008-22.956,1.025L-22.956,1.025z M-22.956,3.129L-22.956,3.129v1.01c0.928,0.027,1.855,0.032,2.789,0.032
		V3.097C-20.905,3.141-22.077,3.097-22.956,3.129L-22.956,3.129z M-22.956,5.17L-22.956,5.17v1.096
		c0.109,0.005,0.412,0.016,0.781,0.016h2.007v-1.09c-0.596,0-0.857,0.021-1.031,0.021C-21.307,5.213-22.088,5.192-22.956,5.17
		L-22.956,5.17z M-22.956,7.27L-22.956,7.27v1.058l0.185,0.021c0.934,0.108,1.481,0.044,1.78,0.065c0.119,0,0.456,0.011,0.824,0.016
		V7.34C-20.487,7.329-22.337,7.296-22.956,7.27L-22.956,7.27z M-22.956,9.353L-22.956,9.353v1.058
		c0.847,0.119,1.085,0.142,1.791,0.142c0.32,0,0.646,0.011,0.998,0.011V9.521C-20.873,9.559-22.533,9.391-22.956,9.353
		L-22.956,9.353z M-22.956,11.419L-22.956,11.419v1.063c0.445,0.108,0.933,0.293,2.675,0.229c0.038,0,0.081,0,0.114,0v-1.117
		c-0.211,0-0.396,0.005-0.537,0.01C-21.144,11.61-22.131,11.572-22.956,11.419L-22.956,11.419z M-20.08,3.092L-20.08,3.092v1.079
		c0.943,0,1.887-0.011,2.831-0.021V3.048C-18.464,3.054-19.723,3.065-20.08,3.092L-20.08,3.092z M-20.08,5.192L-20.08,5.192v1.09
		h0.01c0,0,1.867,0.038,2.821,0.087V5.246c-0.846-0.011-1.524-0.021-1.855-0.032C-19.5,5.197-19.82,5.192-20.08,5.192L-20.08,5.192z
		 M-20.08,7.34L-20.08,7.34v1.09c0.536,0.006,1.128,0.017,1.274,0.021c0.054,0.006,0.635,0.039,1.557,0.093V7.47L-20.08,7.34
		L-20.08,7.34z M-20.08,9.521L-20.08,9.521v1.047c0.434,0.017,0.905,0.032,1.454,0.07c0.152,0.012,0.635,0.05,1.377,0.098V9.641
		C-18.73,9.521-19.538,9.483-20.08,9.521L-20.08,9.521z M-20.08,11.594L-20.08,11.594v1.111c1.643-0.037,2.083,0.217,2.831,0.288
		v-1.14c-0.602-0.06-1.068-0.109-1.28-0.142C-19.137,11.626-19.658,11.599-20.08,11.594L-20.08,11.594z M-17.162,5.251
		L-17.162,5.251v1.123c0.434,0.017,1.605,0.054,2.984,0.081V5.3C-15.208,5.284-16.272,5.268-17.162,5.251L-17.162,5.251z
		 M-17.162,7.47L-17.162,7.47v1.074c0.797,0.044,1.833,0.103,2.984,0.163V7.589C-15.458,7.546-16.554,7.502-17.162,7.47
		L-17.162,7.47z M-17.162,9.651L-17.162,9.651v1.097c0.765,0.048,1.791,0.118,2.984,0.188V9.889
		c-0.771-0.053-1.378-0.098-1.779-0.13C-16.402,9.716-16.804,9.684-17.162,9.651L-17.162,9.651z M-17.162,11.865L-17.162,11.865
		v1.129c0.391,0.032,1.687,0.146,2.984,0.259v-1.117C-15.208,12.049-16.31,11.946-17.162,11.865L-17.162,11.865z M-14.091,5.3
		L-14.091,5.3v1.161c1.096,0.021,2.306,0.043,3.375,0.06V5.343C-11.433,5.333-12.724,5.322-14.091,5.3L-14.091,5.3z M-14.091,7.595
		L-14.091,7.595v1.117c1.064,0.055,2.213,0.114,3.375,0.163V7.698C-11.845,7.666-13.027,7.633-14.091,7.595L-14.091,7.595z
		 M-14.091,9.889L-14.091,9.889v1.054c1.02,0.065,2.16,0.13,3.375,0.206v-1.085C-12.041,10.009-13.18,9.944-14.091,9.889
		L-14.091,9.889z M-10.63,7.704L-10.63,7.704V8.88c1.302,0.06,2.609,0.114,3.792,0.152V7.812C-7.744,7.785-9.138,7.747-10.63,7.704
		L-10.63,7.704z M-10.63,10.069L-10.63,10.069v1.08c1.205,0.07,2.484,0.141,3.792,0.205v-1.139
		C-8.216,10.172-9.49,10.118-10.63,10.069L-10.63,10.069z M-6.751,10.215L-6.751,10.215v1.139c1.351,0.07,2.729,0.136,4.096,0.186
		v-1.21C-4.098,10.297-5.47,10.259-6.751,10.215L-6.751,10.215z M19.882,10.33L19.882,10.33l-0.012,1.167
		c1.379-0.022,2.701-0.061,3.928-0.098l0.011-1.205C22.572,10.243,21.259,10.292,19.882,10.33L19.882,10.33z M23.929,7.752
		L23.929,7.752v1.226c1.084-0.043,2.299-0.086,3.525-0.141V7.649C26.078,7.698,24.796,7.736,23.929,7.752L23.929,7.752z
		 M23.918,10.182L23.918,10.182v1.21c1.28-0.048,2.473-0.103,3.526-0.168V10.02C26.371,10.075,25.187,10.134,23.918,10.182
		L23.918,10.182z M27.575,5.333L27.575,5.333v1.188c0.944-0.017,2.062-0.038,3.125-0.06L30.71,5.29
		C29.505,5.305,28.291,5.322,27.575,5.333L27.575,5.333z M27.575,7.644L27.575,7.644l-0.012,1.188
		c1.086-0.05,2.16-0.093,3.137-0.136V7.536C29.691,7.568,28.605,7.612,27.575,7.644L27.575,7.644z M27.563,10.014L27.563,10.014
		l-0.011,1.199c1.292-0.087,2.322-0.162,3.136-0.228L30.7,9.83C29.789,9.889,28.735,9.95,27.563,10.014L27.563,10.014z
		 M27.552,12.342L27.552,12.342v1.236c0.999-0.076,2.116-0.189,3.136-0.309v-1.183C29.408,12.196,28.149,12.298,27.552,12.342
		L27.552,12.342z M30.818,5.29L30.818,5.29v1.16c0.967-0.021,1.9-0.043,2.616-0.059V5.256C32.761,5.268,31.794,5.278,30.818,5.29
		L30.818,5.29z M30.808,7.524L30.808,7.524v1.161c1.052-0.043,1.963-0.086,2.614-0.13l0.012-1.129
		C32.739,7.454,31.817,7.492,30.808,7.524L30.808,7.524z M30.808,9.825L30.808,9.825v1.15c1.27-0.098,2.051-0.174,2.614-0.228V9.641
		C32.793,9.694,31.904,9.754,30.808,9.825L30.808,9.825z M39.77,12.19L39.77,12.19v-1.009l-0.606,0.141c0,0-0.088,0.022-0.218,0.055
		v1.047C39.119,12.375,39.445,12.288,39.77,12.19L39.77,12.19z M39.77,10.209L39.77,10.209V9.163l-0.824,0.174v1.031
		c0.065-0.011,0.141-0.022,0.218-0.033C39.369,10.297,39.575,10.252,39.77,10.209L39.77,10.209z M39.77,8.165L39.77,8.165V7.167
		c-0.261,0.032-0.554,0.064-0.824,0.087V8.29c0.075-0.011,0.152-0.021,0.218-0.033C39.369,8.23,39.575,8.198,39.77,8.165
		L39.77,8.165z M39.77,6.147L39.77,6.147V5.159c-0.358,0-0.694,0.012-0.813,0.021h-0.011v1.021
		C39.228,6.179,39.52,6.163,39.77,6.147L39.77,6.147z M39.77,4.171L39.77,4.171l0.011-1.02c-0.314-0.011-0.617-0.017-0.835-0.027
		v1.053C39.261,4.177,39.542,4.171,39.77,4.171L39.77,4.171z M39.781,2.121L39.781,2.121V1.123c-0.336-0.032-0.64-0.07-0.727-0.081
		c-0.033-0.006-0.065-0.006-0.108-0.006v1.036C39.164,2.088,39.477,2.099,39.781,2.121L39.781,2.121z M39.781,0.125L39.781,0.125
		v-0.998c-0.249-0.044-0.531-0.087-0.824-0.125V0.01C39.228,0.048,39.509,0.086,39.781,0.125L39.781,0.125z M39.781-1.888
		L39.781-1.888v-0.982l-0.617-0.157c0,0-0.065-0.021-0.207-0.049v1.021l0,0C39.184-2.013,39.489-1.948,39.781-1.888L39.781-1.888z
		 M39.781-3.863L39.781-3.863V-4.9c-0.281-0.098-0.574-0.189-0.824-0.254v1.063C39.184-4.026,39.489-3.945,39.781-3.863
		L39.781-3.863z M39.781-5.909L39.781-5.909v-0.976l-0.824-0.299v1.004C39.196-6.109,39.5-6.006,39.781-5.909L39.781-5.909z
		 M39.792-7.883L39.792-7.883v-1.02l-0.824-0.358L38.957-8.23C38.989-8.225,39-8.219,39.021-8.208
		C39.228-8.117,39.509-8.002,39.792-7.883L39.792-7.883z M-31.039,18.408L-31.039,18.408v10.405c0,1.059,0.727,2.246,1.877,2.246
		h73.685c1.149,0,1.877-1.188,1.877-2.246V18.408H-31.039L-31.039,18.408z M-31.322,28.813c0,0.623,0.228,1.291,0.641,1.779
		c0.369,0.444,0.889,0.749,1.519,0.749h73.685c0.629,0,1.149-0.305,1.52-0.749c0.411-0.488,0.639-1.156,0.639-1.779V18.408v-0.282
		H46.4h-77.439h-0.283v0.282V28.813z"/>
	<linearGradient id="SVGID_2_" gradientUnits="userSpaceOnUse" x1="-16.2178" y1="-3.7935" x2="32.7183" y2="-3.7935">
		<stop  offset="0" style="stop-color:#CCCDCF"/>
		<stop  offset="0.2" style="stop-color:#DBDBDA"/>
		<stop  offset="0.41" style="stop-color:#BCBDBE"/>
		<stop  offset="0.61" style="stop-color:#AEB0B2"/>
		<stop  offset="0.81" style="stop-color:#BDBDBE"/>
		<stop  offset="1" style="stop-color:#B2B3B3"/>
	</linearGradient>
	<path fill-rule="evenodd" clip-rule="evenodd" fill="url(#SVGID_2_)" d="M-12.279,2.006c0.478,0.234,0.944,0.483,1.395,0.732
		c0.32,0.174,0.635,0.358,0.949,0.543l0.348,0.217c2.246,1.356,4.399,2.539,6.857,3.483C-2.14,7.209-1.548,7.417-0.951,7.6
		C2.13,8.588,5.315,9.087,8.575,9.12c3.43,0.033,6.804-0.423,10.048-1.573c2.269-0.804,4.21-1.866,6.261-3.082l0.011-0.011
		l1.552-0.895l2.214-1.232c1.345-0.748,1.627-0.949,3.2-1.648c0.282-0.125,0.575-0.244,0.858-0.354v-13.221v-0.038
		c-0.738-0.325-1.542-0.613-2.269-0.852C20-16.401,9.531-17.355-0.951-16.265c-3.776,0.391-7.552,1.047-11.328,1.985
		c-0.108,0.027-0.222,0.06-0.336,0.087c-1.193,0.375-2.388,0.754-3.581,1.134l-0.021,13.33c0.038,0.017,0.076,0.027,0.108,0.038
		C-14.818,0.813-13.516,1.383-12.279,2.006z"/>
</g>
</svg>
